# xmcd
#
# Track frame offsets: 
#        150
#        13719
#        27913
#        43804
#        54264
#        69890
#        82978
#        97953
#        115460
#        133283
#        149890
#        165275
#
# Disc length: 2330 seconds
#
# Revision: 0
# Processed by: cddbd v1.5.2PL0 Copyright (c) Steve Scherf et al.
# Submitted via: ExactAudioCopy v0.99pb5
#
DISCID=9f09180c
DTITLE=Diamond Rio - Pickin' on Diamond Rio
DYEAR=2005
DGENRE=Country
TTITLE0=Meet Me in the Middle
TTITLE1=Mirror Mirror
TTITLE2=Norma Jean Riley
TTITLE3=In a Week Or Two
TTITLE4=Love a Little Stronger
TTITLE5=Walkin' Away
TTITLE6=How Your Love Makes Me Feel
TTITLE7=Unbelievable
TTITLE8=One More Day
TTITLE9=Beautiful Mess
TTITLE10=I Believe
TTITLE11=Digging up Diamonds in Sandy Land
EXTD=
EXTT0=
EXTT1=
EXTT2=
EXTT3=
EXTT4=
EXTT5=
EXTT6=
EXTT7=
EXTT8=
EXTT9=
EXTT10=
EXTT11=
PLAYORDER=
